<?xml version="1.0" standalone="no"?>
<!DOCTYPE svg PUBLIC "-//W3C//DTD SVG 20010904//EN"
 "http://www.w3.org/TR/2001/REC-SVG-20010904/DTD/svg10.dtd">
<svg version="1.0" xmlns="http://www.w3.org/2000/svg"
 width="1006.000000pt" height="1006.000000pt" viewBox="0 0 1006.000000 1006.000000"
 preserveAspectRatio="xMidYMid meet">
<metadata>
Created by potrace 1.11, written by Peter Selinger 2001-2013
</metadata>
<g transform="translate(0.000000,1006.000000) scale(0.100000,-0.100000)"
fill="#000000" stroke="none">
<path d="M4271 7396 c2 -3 99 -10 214 -16 1684 -88 3110 -536 3921 -1231 598
-513 757 -1148 430 -1719 -82 -144 -158 -242 -296 -381 -400 -403 -986 -725
-1780 -975 -587 -186 -1260 -309 -2020 -371 -272 -22 -1230 -25 -1490 -5 -779
60 -1399 169 -2007 352 -194 58 -368 117 -484 164 -33 13 -59 20 -59 17 0 -26
482 -267 739 -371 1870 -753 4609 -725 6399 66 985 436 1579 1006 1724 1655
31 139 33 397 4 534 -94 449 -397 854 -916 1225 -314 225 -772 452 -1240 615
-685 240 -1486 389 -2330 435 -182 10 -818 14 -809 6z"/>
<path d="M3530 7044 c-968 -39 -1737 -170 -2495 -426 -198 -67 -593 -234 -581
-246 3 -2 58 12 123 31 570 172 1280 288 1998 327 243 13 806 13 1045 0 1332
-73 2483 -386 3227 -876 400 -264 651 -564 745 -891 32 -111 32 -360 0 -478
-28 -102 -126 -299 -194 -390 -185 -247 -476 -479 -851 -679 -60 -32 -106 -60
-104 -62 11 -11 395 133 597 224 715 322 1157 723 1296 1177 26 84 28 102 28
265 0 161 -2 182 -26 260 -91 295 -296 555 -628 798 -708 519 -1895 866 -3260
952 -172 11 -773 20 -920 14z"/>
<path d="M2530 5296 c-91 -17 -115 -25 -118 -39 -3 -15 4 -17 48 -15 53 2 70
-8 70 -45 0 -9 -45 -174 -101 -365 -56 -191 -122 -421 -149 -512 l-47 -165 65
-3 c44 -2 68 1 73 9 4 7 24 72 45 145 36 129 38 132 86 174 27 23 51 40 54 37
3 -3 23 -72 44 -155 37 -145 61 -209 84 -224 18 -13 75 -9 105 7 28 14 161
151 161 165 0 4 -7 13 -15 20 -13 10 -19 8 -38 -16 -36 -47 -80 -84 -99 -84
-24 0 -37 35 -88 229 l-42 162 23 25 c37 40 180 145 219 162 19 8 55 17 80 21
31 4 46 11 48 24 3 16 -11 17 -182 17 -178 0 -186 -1 -186 -19 0 -17 8 -20 47
-23 34 -2 49 -8 51 -19 1 -8 -24 -42 -56 -76 -59 -60 -224 -204 -228 -200 -2
2 163 580 209 735 l16 52 -32 -1 c-18 -1 -84 -11 -147 -23z"/>
<path d="M4538 5297 c-101 -17 -118 -22 -118 -38 0 -16 8 -19 48 -19 51 0 72
-12 72 -42 0 -14 -78 -306 -96 -357 -4 -11 -9 -10 -27 6 -37 34 -63 43 -125
43 -88 0 -166 -43 -272 -149 -128 -129 -190 -261 -190 -405 0 -84 22 -139 69
-179 27 -22 42 -27 87 -27 90 0 173 56 268 184 28 36 51 64 52 63 2 -1 -6 -34
-17 -72 -35 -127 -20 -175 55 -175 55 0 117 40 187 122 42 47 50 62 38 69 -23
14 -29 11 -76 -41 -46 -51 -83 -65 -83 -31 0 10 65 243 144 517 180 620 165
554 130 553 -16 -1 -82 -10 -146 -22z m-187 -467 c105 -57 28 -311 -154 -506
-80 -86 -128 -109 -171 -80 -42 27 -49 52 -44 145 6 101 34 178 102 279 95
142 193 201 267 162z"/>
<path d="M1971 5223 c-283 -389 -659 -897 -697 -940 -54 -63 -98 -93 -135 -93
-18 0 -28 -6 -32 -20 -5 -20 -2 -20 166 -18 154 3 172 5 175 21 3 13 -3 17
-26 17 -35 0 -62 27 -62 62 0 26 22 62 115 191 l49 67 159 0 159 0 -6 -47 c-3
-27 -8 -75 -12 -108 -12 -122 -35 -156 -112 -165 -34 -4 -48 -10 -50 -22 -3
-17 13 -18 222 -18 219 0 226 1 226 20 0 16 -7 20 -35 20 -19 0 -45 5 -59 11
-51 24 -51 28 -2 571 25 276 46 506 46 511 0 4 -9 7 -20 7 -13 0 -37 -23 -69
-67z m-106 -455 l-18 -188 -134 0 -133 0 123 168 c67 92 134 182 147 200 14
19 26 28 29 21 2 -7 -4 -97 -14 -201z"/>
<path d="M6925 5185 c-53 -52 -15 -135 63 -135 50 0 82 32 82 81 0 73 -92 108
-145 54z"/>
<path d="M3351 4870 c-114 -52 -223 -167 -290 -304 -114 -238 -74 -436 90
-436 77 1 129 28 222 118 68 65 79 73 73 49 -30 -125 -15 -167 62 -167 57 0
116 34 174 97 53 60 62 80 41 91 -13 8 -27 -1 -66 -44 -55 -61 -77 -68 -77
-26 0 33 13 83 105 400 37 128 65 236 62 239 -3 3 -34 1 -68 -4 -60 -8 -64
-10 -73 -40 -11 -40 -18 -41 -36 -7 -8 14 -27 32 -42 40 -39 20 -125 17 -177
-6z m170 -59 c26 -27 29 -36 29 -98 0 -129 -60 -267 -166 -382 -97 -105 -161
-126 -215 -72 -26 26 -29 36 -29 93 0 81 18 147 68 250 44 91 131 195 184 221
52 26 95 22 129 -12z"/>
<path d="M5061 4870 c-204 -74 -371 -310 -359 -509 5 -77 25 -125 75 -175 47
-46 91 -59 190 -55 67 3 91 10 154 41 92 46 205 145 190 168 -9 12 -15 11 -41
-8 -112 -83 -174 -112 -241 -112 -104 0 -179 78 -179 188 l0 48 83 11 c237 32
423 149 442 277 8 54 -12 98 -58 126 -44 27 -180 27 -256 0z m169 -50 c41 -41
9 -137 -68 -202 -59 -50 -209 -108 -279 -108 -22 0 -22 1 -8 41 42 118 131
230 216 272 48 23 114 22 139 -3z"/>
<path d="M5590 4866 c-98 -19 -115 -25 -115 -41 0 -15 8 -18 49 -19 32 -1 52
-6 58 -16 7 -11 -15 -104 -79 -328 l-89 -312 66 0 66 0 43 133 c64 197 156
355 265 455 51 47 81 59 102 41 22 -18 17 -39 -71 -347 -41 -145 -75 -267 -75
-273 0 -5 29 -9 64 -9 l63 0 38 108 c62 178 140 318 243 439 58 69 104 98 132
83 11 -6 20 -19 20 -29 0 -10 -29 -122 -65 -247 -77 -270 -84 -314 -61 -349
13 -20 25 -25 57 -25 22 0 52 6 68 14 35 18 161 152 161 171 0 33 -24 23 -75
-29 -95 -99 -97 -82 -24 179 89 314 93 351 46 403 -26 28 -93 30 -145 3 -52
-26 -158 -141 -217 -234 -27 -42 -50 -75 -52 -73 -2 2 7 44 22 94 48 172 28
232 -78 232 -43 0 -63 -6 -100 -31 -57 -38 -136 -124 -184 -202 -20 -31 -38
-56 -40 -53 -3 3 58 231 73 270 8 21 -18 20 -166 -8z"/>
<path d="M6895 4879 c-27 -5 -80 -14 -117 -20 -58 -9 -68 -14 -68 -31 0 -18 5
-20 42 -15 23 3 51 1 61 -5 26 -14 21 -43 -59 -313 -76 -255 -84 -303 -60
-340 24 -37 96 -35 157 3 41 26 149 137 149 153 0 4 -6 12 -14 18 -12 10 -26
0 -75 -51 -54 -55 -63 -61 -76 -47 -13 13 -5 50 75 332 49 175 90 320 90 322
0 7 -48 4 -105 -6z"/>
<path d="M2320 3745 l0 -175 25 0 c24 0 25 2 25 70 0 81 14 118 48 127 47 11
57 -6 60 -106 3 -89 3 -91 27 -91 25 0 25 1 25 95 0 88 -2 98 -25 120 -28 29
-79 33 -113 9 l-22 -15 0 70 c0 69 -1 71 -25 71 l-25 0 0 -175z"/>
<path d="M3270 3853 c0 -52 -3 -64 -12 -55 -7 7 -30 12 -53 12 -66 -1 -105
-45 -105 -120 0 -47 21 -95 49 -110 29 -15 83 -12 109 6 20 14 22 14 22 0 0
-10 9 -16 23 -16 l22 0 -3 175 -3 175 -24 0 c-24 0 -25 -3 -25 -67z m-10 -102
c16 -30 12 -107 -6 -125 -8 -9 -28 -16 -44 -16 -36 0 -60 32 -60 80 0 51 24
80 65 80 24 0 38 -6 45 -19z"/>
<path d="M3690 3745 l0 -175 25 0 25 0 0 175 0 175 -25 0 -25 0 0 -175z"/>
<path d="M3920 3745 l0 -175 24 0 c22 0 25 5 28 47 2 25 8 48 14 50 6 2 28
-19 48 -47 29 -41 41 -50 66 -50 l30 0 -51 70 -51 70 42 48 42 47 -28 3 c-16
2 -33 -2 -39 -10 -5 -8 -25 -32 -42 -53 l-33 -40 0 108 0 107 -25 0 -25 0 0
-175z"/>
<path d="M5750 3745 l0 -175 25 0 25 0 0 175 0 175 -25 0 -25 0 0 -175z"/>
<path d="M1666 3858 c-3 -29 -9 -106 -12 -171 l-7 -119 24 4 c22 3 24 8 26 63
2 33 5 89 9 124 l6 65 41 -128 c36 -111 44 -126 61 -124 17 2 30 29 68 138
l47 135 0 -76 c1 -42 4 -104 7 -138 6 -57 9 -61 32 -61 23 0 24 2 19 53 -4 28
-9 105 -13 170 l-6 117 -32 0 c-32 0 -32 0 -75 -129 l-44 -130 -42 127 c-40
124 -42 127 -72 130 -30 3 -31 2 -37 -50z"/>
<path d="M3387 3903 c-13 -12 -7 -41 10 -47 20 -8 44 19 36 40 -5 14 -35 19
-46 7z"/>
<path d="M3807 3903 c-13 -12 -7 -41 10 -47 9 -4 23 -1 30 7 8 7 11 21 7 30
-6 17 -35 23 -47 10z"/>
<path d="M4292 3887 c-24 -25 -29 -75 -11 -109 9 -17 6 -25 -15 -47 -26 -27
-34 -77 -20 -116 16 -41 119 -60 162 -29 22 15 24 15 36 -1 7 -11 22 -15 40
-13 l28 3 -22 28 c-21 26 -21 30 -7 60 8 18 18 47 22 65 6 31 5 33 -16 30 -17
-2 -25 -14 -36 -52 l-15 -49 -37 43 -38 44 34 32 c60 57 35 134 -45 134 -27 0
-45 -7 -60 -23z m82 -23 c21 -21 20 -28 -8 -61 -27 -31 -40 -26 -51 18 -4 18
-1 31 10 43 20 20 29 20 49 0z m18 -218 c13 -23 -4 -36 -49 -36 -56 0 -78 61
-40 108 8 10 18 6 44 -20 19 -18 39 -41 45 -52z"/>
<path d="M4657 3903 c-4 -3 -7 -80 -7 -170 l0 -163 77 0 c141 0 203 54 203
178 0 111 -60 162 -191 162 -42 0 -79 -3 -82 -7z m184 -61 c27 -24 33 -37 37
-84 8 -96 -39 -148 -133 -148 l-45 0 0 130 0 130 55 0 c46 0 60 -5 86 -28z"/>
<path d="M5290 3892 c0 -26 32 -52 63 -52 29 0 67 31 67 55 0 21 -23 19 -43
-5 -14 -17 -21 -18 -37 -10 -11 6 -20 15 -20 20 0 6 -7 10 -15 10 -8 0 -15 -8
-15 -18z"/>
<path d="M2094 3885 c-8 -20 4 -35 27 -35 14 0 19 7 19 25 0 18 -5 25 -20 25
-11 0 -23 -7 -26 -15z"/>
<path d="M2180 3875 c0 -22 4 -26 23 -23 14 2 22 10 22 23 0 13 -8 21 -22 23
-19 3 -23 -1 -23 -23z"/>
<path d="M2050 3741 c0 -88 8 -125 32 -150 23 -25 74 -28 106 -5 20 14 22 14
22 0 0 -10 9 -16 25 -16 l25 0 0 120 0 120 -25 0 c-25 0 -25 -1 -25 -78 0 -91
-16 -125 -58 -120 -37 4 -52 40 -52 126 0 70 -1 72 -25 72 -24 0 -25 -2 -25
-69z"/>
<path d="M2614 3776 c-30 -30 -34 -40 -34 -87 1 -83 39 -119 127 -119 54 0 76
10 68 31 -4 10 -19 13 -59 11 -48 -3 -55 -1 -75 24 -11 14 -21 31 -21 35 0 5
38 9 85 9 l85 0 0 36 c0 52 -44 94 -100 94 -34 0 -48 -6 -76 -34z m104 -12
c12 -8 22 -24 22 -35 0 -16 -7 -19 -55 -19 -39 0 -55 4 -55 13 0 24 30 52 60
56 3 1 16 -6 28 -15z"/>
<path d="M2830 3690 c0 -120 0 -120 24 -120 23 0 24 3 27 86 4 91 17 114 64
114 37 0 45 -19 45 -112 0 -87 0 -88 25 -88 25 0 25 0 25 95 0 88 -2 98 -25
120 -29 30 -89 34 -117 8 -17 -15 -18 -15 -18 0 0 11 -8 17 -25 17 l-25 0 0
-120z"/>
<path d="M3380 3690 l0 -120 25 0 25 0 0 120 0 120 -25 0 -25 0 0 -120z"/>
<path d="M3520 3790 c-38 -38 -20 -97 37 -114 29 -9 45 -30 37 -51 -6 -14 -16
-16 -50 -12 -33 3 -44 1 -49 -11 -8 -21 12 -32 58 -32 48 0 75 14 87 46 14 35
-4 73 -43 89 -69 29 -73 71 -7 62 31 -4 39 -1 43 13 9 35 -80 43 -113 10z"/>
<path d="M3800 3690 l0 -120 25 0 25 0 0 120 0 120 -25 0 -25 0 0 -120z"/>
<path d="M5018 3793 c-34 -21 -48 -53 -48 -109 0 -39 5 -51 34 -80 29 -29 41
-34 81 -34 40 0 52 5 81 34 29 29 34 41 34 80 0 58 -17 94 -51 112 -37 19 -98
17 -131 -3z m116 -45 c9 -12 16 -38 16 -58 0 -51 -24 -80 -65 -80 -41 0 -65
29 -65 80 0 51 24 80 65 80 24 0 39 -7 49 -22z"/>
<path d="M5271 3775 c-27 -31 -31 -43 -31 -91 0 -48 4 -59 29 -85 31 -31 83
-39 122 -19 16 9 19 7 19 -13 0 -40 -31 -59 -92 -55 -43 2 -53 0 -56 -14 -7
-38 133 -37 171 1 20 20 22 35 27 166 l5 145 -22 0 c-13 0 -23 -5 -23 -10 0
-7 -6 -7 -19 0 -11 5 -38 10 -59 10 -33 0 -45 -6 -71 -35z m127 -17 c7 -7 12
-36 12 -64 0 -61 -17 -84 -60 -84 -36 0 -60 32 -60 80 0 50 24 80 64 80 17 0
37 -5 44 -12z"/>
<path d="M5538 3799 c-33 -19 -10 -37 39 -31 37 4 49 1 60 -13 20 -29 16 -35
-22 -35 -49 0 -90 -23 -105 -60 -11 -28 -11 -34 7 -58 22 -30 78 -41 113 -22
13 7 20 7 20 0 0 -5 12 -10 26 -10 l26 0 -4 95 c-3 82 -7 98 -28 120 -19 20
-33 25 -69 25 -25 0 -54 -5 -63 -11z m112 -133 c0 -33 -25 -56 -60 -56 -52 0
-49 54 4 69 49 14 56 13 56 -13z"/>
<path d="M5891 3775 c-26 -30 -31 -44 -31 -89 0 -46 4 -59 29 -85 31 -33 82
-42 122 -21 16 9 19 7 19 -13 0 -42 -32 -61 -95 -54 -49 5 -55 4 -55 -14 0
-24 35 -33 101 -27 86 9 93 22 99 193 5 144 5 145 -17 145 -12 0 -23 -6 -26
-12 -4 -10 -7 -10 -18 0 -7 6 -32 12 -55 12 -35 0 -47 -5 -73 -35z m129 -24
c16 -30 12 -107 -6 -125 -8 -9 -28 -16 -44 -16 -36 0 -60 32 -60 80 0 51 24
80 65 80 24 0 38 -6 45 -19z"/>
<path d="M6158 3799 c-33 -19 -10 -36 42 -31 45 4 51 2 59 -19 8 -22 6 -24
-33 -29 -56 -8 -81 -23 -96 -60 -11 -28 -11 -34 7 -58 22 -30 78 -41 113 -22
13 7 20 7 20 0 0 -5 12 -10 26 -10 l26 0 -4 95 c-3 82 -7 98 -28 120 -19 20
-33 25 -69 25 -25 0 -54 -5 -63 -11z m112 -133 c0 -33 -25 -56 -60 -56 -52 0
-49 54 4 69 49 14 56 13 56 -13z"/>
<path d="M6362 3793 c2 -14 16 -19 61 -23 l59 -5 -66 -87 c-36 -48 -66 -92
-66 -98 0 -6 38 -10 100 -10 93 0 100 1 100 20 0 18 -7 20 -60 20 -33 0 -60 2
-60 5 0 3 27 41 60 84 33 43 60 86 60 95 0 14 -14 16 -96 16 -86 0 -95 -2 -92
-17z"/>
</g>
</svg>
